<?xml version="1.0" encoding="UTF-8"?>
<!-- New logo: white outer ring and blue inner 'bikini' badge -->
<svg xmlns="http://www.w3.org/2000/svg" viewBox="0 0 100 100" width="64" height="64" role="img" aria-label="Travel Booking logo">
  <defs>
    <linearGradient id="grad1" x1="0" x2="1">
      <stop offset="0" stop-color="#1e90ff" />
      <stop offset="1" stop-color="#0b61d4" />
    </linearGradient>
    <filter id="drop" x="-20%" y="-20%" width="140%" height="140%">
      <feDropShadow dx="0" dy="6" stdDeviation="10" flood-color="#04233a" flood-opacity="0.12"/>
    </filter>
  </defs>

  <!-- outer white ring -->
  <g filter="url(#drop)">
    <circle cx="50" cy="50" r="48" fill="#ffffff" />
  </g>

  <!-- inner blue circle -->
  <circle cx="50" cy="50" r="38" fill="url(#grad1)" />

  <!-- suitcase base (white) -->
  <rect x="30" y="40" width="40" height="24" rx="3" fill="#ffffff" />
  <!-- suitcase handle -->
  <rect x="42" y="32" width="16" height="6" rx="2" fill="#ffffff" />

  <!-- airplane overlay (blue, cutout effect) -->
  <path d="M62 46c0 0-6 0-9 1s-7 2-7 2l-6 3v2l6-2s4-1 8-1 9 2 9 2 2-3 2-4-3-3-3-3z" fill="url(#grad1)" opacity="0.98" />

  <!-- accent: small white star -->
  <polygon points="78,28 80,32 84,32 81,35 82,39 78,37 74,39 75,35 72,32 76,32" fill="#ffffff" opacity="0.9" />

</svg>
